<?xml version="1.0" encoding="UTF-8"?>
<svg width="32px" height="32px" viewBox="0 0 32 32" version="1.1" xmlns="http://www.w3.org/2000/svg" xmlns:xlink="http://www.w3.org/1999/xlink">
    <!-- Generator: Sketch 46.2 (44496) - http://www.bohemiancoding.com/sketch -->
    <title>enter-button</title>
    <desc>Created with Sketch.</desc>
    <defs></defs>
    <g id="City-Page" stroke="none" stroke-width="1" fill="none" fill-rule="evenodd">
        <g id="City-page-design" transform="translate(-653.000000, -3084.000000)">
            <g id="enter-button" transform="translate(653.000000, 3084.000000)">
                <rect id="Rectangle-53-Copy-2" fill="#AFB1B3" x="0" y="0" width="32" height="32" rx="3.19999981"></rect>
                <path d="M19.0516354,10.5804715 C18.8118641,10.3398428 18.4128041,10.3398428 18.1646491,10.5804715 C17.9248777,10.8129708 17.9248777,11.1999277 18.1646491,11.4318851 L22.6621785,15.7930088 L7.82094633,15.7930088 C7.47498253,15.7935507 7.2,16.0601933 7.2,16.3956643 C7.2,16.7311354 7.47498253,17.0064493 7.82094633,17.0064493 L22.6621785,17.0064493 L18.1646491,21.3594436 C17.9248777,21.6000723 17.9248777,21.9875711 18.1646491,22.2195285 C18.4128041,22.4601572 18.812423,22.4601572 19.0516354,22.2195285 L24.6138838,16.8259778 C24.8620387,16.5934785 24.8620387,16.2065215 24.6138838,15.9745642 L19.0516354,10.5804715 Z" id="Shape" fill="#FFFFFF" fill-rule="nonzero"></path>
            </g>
        </g>
    </g>
</svg>