<?xml version="1.0" encoding="UTF-8"?>
<svg width="120px" height="120px" viewBox="0 0 120 120" version="1.1" xmlns="http://www.w3.org/2000/svg" xmlns:xlink="http://www.w3.org/1999/xlink">
    <!-- Generator: Sketch 47.1 (45422) - http://www.bohemiancoding.com/sketch -->
    <title>empowering icn</title>
    <desc>Created with Sketch.</desc>
    <defs></defs>
    <g id="With-Copy" stroke="none" stroke-width="1" fill="none" fill-rule="evenodd">
        <g id="empowering-icn">
            <g id="punctuality-icon" transform="translate(9.000000, 21.000000)">
                <g id="Page-1">
                    <path d="M51.1278851,0 C39.2982255,0 29.7093638,9.60179167 29.7093638,21.4474028 C29.7093638,33.2930139 39.2982255,42.8959028 51.1278851,42.8959028 C62.9575447,42.8959028 72.5464064,33.2930139 72.5464064,21.4474028 C72.5464064,9.60179167 62.9575447,0 51.1278851,0 M51.1278851,2.19444444 C61.7303106,2.19444444 70.354917,10.8317778 70.354917,21.4474028 C70.354917,32.064125 61.7303106,40.7014583 51.1278851,40.7014583 C40.5254596,40.7014583 31.9008532,32.064125 31.9008532,21.4474028 C31.9008532,10.8317778 40.5254596,2.19444444 51.1278851,2.19444444" id="Fill-1" fill="#2E2D2E"></path>
                    <path d="M67.1424128,79 L17.2630191,79 C17.2630191,60.2726111 32.4248383,42.8959028 51.1281043,42.8959028 C64.1093915,42.8959028 75.3846043,51.2666111 81.0682319,62.6513889" id="Stroke-3" stroke="#2E2D2E" stroke-width="2" stroke-linecap="round" stroke-linejoin="round"></path>
                    <path d="M84.2719702,71.9098597 C84.7442362,74.2282903 84.9918745,76.6026792 84.9918745,79.0001097 L77.8662468,79.0001097" id="Stroke-5" stroke="#2E2D2E" stroke-width="2" stroke-linecap="round" stroke-linejoin="round"></path>
                    <path d="M28.0316691,26.38205 C25.8149777,28.6148972 22.7447011,29.9973972 19.3511798,29.9973972 C12.5915309,29.9973972 7.1117117,24.5101889 7.1117117,17.741425 C7.1117117,10.9737583 12.5915309,5.48655 19.3511798,5.48655 C23.4437862,5.48655 27.0674138,7.49775833 29.289584,10.5864389" id="Stroke-7" stroke="#2E2D2E" stroke-width="2" stroke-linecap="round"></path>
                    <path d="M27.3799202,49.375 L0.00054787234,49.375 C0.00054787234,38.6737917 8.66350532,29.9980556 19.3513989,29.9980556 C27.3667713,29.9980556 34.2447606,34.8774028 37.1813564,41.8326944" id="Stroke-9" stroke="#2E2D2E" stroke-width="2" stroke-linecap="round" stroke-linejoin="round"></path>
                    <path d="M74.2241011,26.38205 C76.4407926,28.6148972 79.5110691,29.9973972 82.9045904,29.9973972 C89.6642394,29.9973972 95.1440585,24.5101889 95.1440585,17.741425 C95.1440585,10.9737583 89.6642394,5.48655 82.9045904,5.48655 C78.811984,5.48655 75.1883564,7.49775833 72.9661862,10.5864389" id="Stroke-11" stroke="#2E2D2E" stroke-width="2" stroke-linecap="round"></path>
                    <path d="M74.8757404,49.375 L102.255113,49.375 C102.255113,38.6737917 93.5921553,29.9980556 82.9042617,29.9980556 C74.8888894,29.9980556 68.0109,34.8774028 65.0743043,41.8326944" id="Stroke-13" stroke="#2E2D2E" stroke-width="2" stroke-linecap="round" stroke-linejoin="round"></path>
                    <polyline id="Stroke-15" stroke="#AFB1B3" stroke-width="2" stroke-linecap="round" stroke-linejoin="round" points="63.1810766 68.0277778 72.4949064 77.3541667 93.3140553 56.5069444"></polyline>
                </g>
            </g>
        </g>
    </g>
</svg>