<?xml version="1.0" encoding="UTF-8"?>
<svg width="171px" height="120px" viewBox="0 0 171 120" version="1.1" xmlns="http://www.w3.org/2000/svg" xmlns:xlink="http://www.w3.org/1999/xlink">
    <!-- Generator: Sketch 47.1 (45422) - http://www.bohemiancoding.com/sketch -->
    <title>simplifying lives icn</title>
    <desc>Created with Sketch.</desc>
    <defs></defs>
    <g id="With-Copy" stroke="none" stroke-width="1" fill="none" fill-rule="evenodd" stroke-linecap="round" stroke-linejoin="round">
        <g id="simplifying-lives-icn" stroke-width="2">
            <g id="wallet-icon" transform="translate(16.000000, 33.000000)">
                <g id="Page-1">
                    <path d="M8.84195776,39.2984151 L8.84195776,41.8101132 C8.84195776,47.3020377 13.2611991,51.7542642 18.7097595,51.7542642 L20.7240612,51.7542642" id="Stroke-1" stroke="#2E2D2E"></path>
                    <path d="M128.643781,51.7547472 L129.078755,51.7547472 C134.528514,51.7547472 138.946557,47.3013132 138.946557,41.8105962 L138.946557,35.3876528 C138.946557,28.2305208 133.188841,22.4270491 126.085462,22.4270491 L122.008928,22.4270491 C118.56029,22.4270491 115.207514,21.2835019 112.468255,19.1727094 L87.6279966,1.34810566 C86.492031,0.473841509 85.1032293,0.000483018868 83.6760828,0.000483018868 L39.414169,0.000483018868 C37.4058586,0.000483018868 35.5113845,0.933916981 34.2795569,2.53029434 L29.0287121,11.5518792 C27.0503586,14.1155019 24.2212293,15.8773132 21.0625741,16.5136906 L14.0718328,17.9228981" id="Stroke-3" stroke="#2E2D2E"></path>
                    <path d="M44.7926302,51.7547472 L104.621346,51.7547472" id="Stroke-5" stroke="#2E2D2E"></path>
                    <path d="M44.7926302,51.7547472 C44.7926302,58.4228226 39.4267509,63.8302189 32.8086733,63.8302189 C26.1905957,63.8302189 20.8259147,58.4228226 20.8259147,51.7547472 C20.8259147,45.0854642 26.1905957,39.6780679 32.8086733,39.6780679 C39.4267509,39.6780679 44.7926302,45.0854642 44.7926302,51.7547472 Z" id="Stroke-7" stroke="#2E2D2E"></path>
                    <path d="M128.675416,51.7547472 C128.675416,58.4228226 123.309536,63.8302189 116.691459,63.8302189 C110.074579,63.8302189 104.7087,58.4228226 104.7087,51.7547472 C104.7087,45.0854642 110.074579,39.6780679 116.691459,39.6780679 C123.309536,39.6780679 128.675416,45.0854642 128.675416,51.7547472 Z" id="Stroke-9" stroke="#2E2D2E"></path>
                    <polyline id="Stroke-11" stroke="#2E2D2E" points="43.0805336 10.3508528 37.9447233 24.1519094 60.1991026 24.1519094"></polyline>
                    <polyline id="Stroke-13" stroke="#2E2D2E" points="77.318031 10.3508528 72.1822207 24.1519094 94.4366 24.1519094"></polyline>
                    <path d="M76.4625819,33.6404528 L86.7330043,33.6404528" id="Stroke-15" stroke="#AFB1B3"></path>
                    <path d="M3.7890681,17.9128755 L31.5782836,17.9128755" id="Stroke-17" stroke="#AFB1B3"></path>
                    <path d="M5.05288966,26.8232453 L27.7901741,26.8232453" id="Stroke-19" stroke="#AFB1B3"></path>
                    <path d="M0,35.7336151 L23.999069,35.7336151" id="Stroke-21" stroke="#AFB1B3"></path>
                </g>
            </g>
        </g>
    </g>
</svg>