<?xml version="1.0" encoding="UTF-8"?>
<svg width="120px" height="120px" viewBox="0 0 120 120" version="1.1" xmlns="http://www.w3.org/2000/svg" xmlns:xlink="http://www.w3.org/1999/xlink">
    <!-- Generator: Sketch 47.1 (45422) - http://www.bohemiancoding.com/sketch -->
    <title>impacting icn</title>
    <desc>Created with Sketch.</desc>
    <defs></defs>
    <g id="With-Copy" stroke="none" stroke-width="1" fill="none" fill-rule="evenodd" stroke-linecap="round" stroke-linejoin="round">
        <g id="impacting-icn" stroke-width="2">
            <g id="safe-icon" transform="translate(6.000000, 7.000000)">
                <g id="Page-1">
                    <g id="Group-9">
                        <polyline id="Stroke-1" stroke="#AFB1B3" points="25.5542 7.0835 25.5542 0.9925 66.1882 0.9925 66.1882 7.0835"></polyline>
                        <polygon id="Stroke-3" stroke="#2E2D2E" points="39.4224 106 0.9994 106 0.9994 31.348 20.2114 21.348 39.4224 31.348"></polygon>
                        <polyline id="Stroke-5" stroke="#2E2D2E" points="20.2114 21.3481 20.2114 7.0831 71.5304 7.0831 71.5304 106.0001 39.4224 106.0001"></polyline>
                        <polyline id="Stroke-7" stroke="#2E2D2E" points="71.5308 55.3574 107.7728 55.3574 107.7728 106.0004 71.5308 106.0004"></polyline>
                    </g>
                    <polyline id="Stroke-10" stroke="#2E2D2E" points="9 40 9 48 15 48"></polyline>
                    <polyline id="Stroke-11" stroke="#2E2D2E" points="25 40 25 48 31 48"></polyline>
                    <polyline id="Stroke-12" stroke="#2E2D2E" points="80 68 80 76 86 76"></polyline>
                    <polyline id="Stroke-13" stroke="#2E2D2E" points="96 68 96 76 102 76"></polyline>
                    <polyline id="Stroke-14" stroke="#2E2D2E" points="80 85 80 93 86 93"></polyline>
                    <polyline id="Stroke-15" stroke="#2E2D2E" points="96 85 96 93 102 93"></polyline>
                    <polyline id="Stroke-16" stroke="#2E2D2E" points="9 56 9 64 15 64"></polyline>
                    <polyline id="Stroke-17" stroke="#2E2D2E" points="25 56 25 64 31 64"></polyline>
                    <polyline id="Stroke-18" stroke="#2E2D2E" points="9 74 9 82 15 82"></polyline>
                    <polyline id="Stroke-19" stroke="#2E2D2E" points="25 74 25 82 31 82"></polyline>
                    <path d="M29,18 L62,18" id="Stroke-20" stroke="#2E2D2E"></path>
                    <path d="M42,30 L62,30" id="Stroke-21" stroke="#2E2D2E"></path>
                    <path d="M45,41 L62,41" id="Stroke-22" stroke="#2E2D2E"></path>
                    <path d="M45,53 L62,53" id="Stroke-23" stroke="#2E2D2E"></path>
                    <path d="M45,65 L62,65" id="Stroke-24" stroke="#2E2D2E"></path>
                    <path d="M45,77 L62,77" id="Stroke-25" stroke="#2E2D2E"></path>
                    <path d="M45,89 L62,89" id="Stroke-26" stroke="#2E2D2E"></path>
                </g>
            </g>
        </g>
    </g>
</svg>