<?xml version="1.0" encoding="UTF-8"?>
<svg width="13px" height="14px" viewBox="0 0 13 14" version="1.1" xmlns="http://www.w3.org/2000/svg" xmlns:xlink="http://www.w3.org/1999/xlink">
    <!-- Generator: Sketch 46.2 (44496) - http://www.bohemiancoding.com/sketch -->
    <title>location-arrow</title>
    <desc>Created with Sketch.</desc>
    <defs></defs>
    <g id="City-Page" stroke="none" stroke-width="1" fill="none" fill-rule="evenodd">
        <g id="City-page-design---est-fare" transform="translate(-659.000000, -2902.000000)" fill="#AFB1B3">
            <g id="Group-9" transform="translate(195.000000, 2884.000000)">
                <g id="Group-27">
                    <path d="M476.508929,19.4017857 L470.794643,30.8303571 C470.693452,31.0386915 470.523811,31.1428571 470.285714,31.1428571 C470.255952,31.1428571 470.21131,31.1369048 470.151786,31.125 C470.020833,31.0952379 469.915179,31.0282743 469.834821,30.9241071 C469.754464,30.81994 469.714286,30.7023816 469.714286,30.5714286 L469.714286,25.4285714 L464.571429,25.4285714 C464.440476,25.4285714 464.322917,25.3883933 464.21875,25.3080357 C464.114583,25.2276782 464.047619,25.1220245 464.017857,24.9910714 C463.988095,24.8601184 464,24.7351196 464.053571,24.6160714 C464.107143,24.4970232 464.193452,24.4077384 464.3125,24.3482143 L475.741071,18.6339286 C475.818453,18.5922617 475.904761,18.5714286 476,18.5714286 C476.160715,18.5714286 476.294642,18.6279756 476.401786,18.7410714 C476.491072,18.8244052 476.546131,18.9270827 476.566964,19.0491071 C476.587798,19.1711316 476.568453,19.2886899 476.508929,19.4017857 Z" id="location-arrow"></path>
                </g>
            </g>
        </g>
    </g>
</svg>